<?xml version="1.0" standalone="no"?>
<!DOCTYPE svg PUBLIC "-//W3C//DTD SVG 20010904//EN"
 "http://www.w3.org/TR/2001/REC-SVG-20010904/DTD/svg10.dtd">
<svg version="1.0" xmlns="http://www.w3.org/2000/svg"
 width="24" height="24" viewBox="0 0 1024.000000 1280.000000"
 preserveAspectRatio="xMidYMid meet">

<g transform="translate(0.000000,1280.000000) scale(0.100000,-0.100000)"
fill="#000000" stroke="none">
<path d="M4888 12785 c-252 -64 -478 -336 -478 -575 0 -78 12 -118 52 -178 18
-27 33 -65 39 -105 29 -175 -52 -534 -133 -592 -71 -49 -421 -122 -967 -201
-372 -53 -575 -66 -661 -41 -30 9 -95 42 -145 73 -189 119 -281 121 -338 6
-53 -104 -72 -281 -64 -571 14 -465 94 -575 332 -456 50 25 114 49 144 55 121
23 389 7 836 -50 587 -75 761 -136 841 -291 45 -90 47 -133 47 -974 -1 -1196
-39 -2847 -88 -3875 -60 -1249 -174 -1894 -362 -2060 -157 -138 -698 -310
-976 -310 -468 0 -1047 365 -1715 1083 -191 205 -298 327 -295 335 6 19 346
100 593 141 130 22 160 30 145 38 -11 6 -279 128 -595 271 -316 143 -690 313
-830 376 -140 64 -258 116 -263 116 -5 0 -6 -44 -3 -102 4 -57 18 -319 31
-583 62 -1202 102 -1726 134 -1758 20 -20 57 86 131 378 67 265 143 535 150
535 3 0 29 -48 59 -107 369 -748 785 -1350 1155 -1673 402 -351 779 -520 1326
-595 593 -82 1178 -219 1415 -331 105 -50 201 -170 349 -439 87 -159 178 -290
218 -313 26 -15 29 -15 55 4 47 34 125 146 210 301 149 271 241 391 335 439
223 113 795 250 1397 334 372 52 567 107 826 234 585 288 1047 814 1563 1782
106 198 309 618 358 741 16 40 31 73 34 73 3 0 11 -17 17 -38 74 -242 103
-343 159 -562 90 -353 124 -454 145 -433 31 31 70 552 139 1857 17 313 30 575
30 582 0 7 -129 -46 -302 -125 -167 -75 -551 -249 -854 -386 -304 -138 -550
-252 -549 -254 2 -2 68 -14 147 -28 255 -43 606 -128 631 -152 12 -12 -472
-560 -688 -780 -647 -658 -1153 -961 -1607 -961 -254 0 -738 149 -946 292
-135 93 -231 413 -301 998 -70 589 -107 1392 -153 3305 -6 275 -12 950 -12
1500 l-1 1000 24 72 c38 118 102 177 247 227 269 94 1245 206 1445 167 35 -7
99 -31 143 -54 59 -30 97 -42 138 -45 56 -4 59 -3 97 35 80 80 106 241 98 611
-4 199 -9 262 -24 323 -35 136 -78 185 -166 183 -55 -1 -107 -24 -237 -104
-101 -63 -150 -74 -315 -67 -357 14 -1251 169 -1411 244 -84 39 -161 311 -152
539 2 70 8 108 20 129 75 132 90 202 64 305 -50 202 -224 396 -421 469 -76 29
-190 36 -267 16z m211 -384 c51 -25 74 -62 79 -126 6 -69 -9 -106 -60 -150
-94 -80 -256 -66 -303 25 -22 43 -30 120 -16 162 33 100 187 145 300 89z"/>
</g>
</svg>
